# xmcd
#
# Track frame offsets: 
#        150
#        23609
#        53580
#        68683
#        99703
#        129192
#        152592
#        177834
#        210942
#        214820
#
# Disc length: 3102 seconds
#
# Revision: 0
# Processed by: cddbd v1.5.2PL0 Copyright (c) Steve Scherf et al.
# Submitted via: ExactAudioCopy v1.0b3
#
DISCID=770c1c0a
DTITLE=Torture Squad - Æquilibrium
DYEAR=2010
DGENRE=Death Metal
TTITLE0=Generation Dead
TTITLE1=Raise Your Horns
TTITLE2=Holiday In Abu Ghraib
TTITLE3=174
TTITLE4=Storms
TTITLE5=Azazel
TTITLE6=Black Sun
TTITLE7=The Spirit Never Dies
TTITLE8=Last Tune Blues (instrumental)
TTITLE9=The Unholy Spell 2010 (bonus track)
EXTD=
EXTT0=
EXTT1=
EXTT2=
EXTT3=
EXTT4=
EXTT5=
EXTT6=
EXTT7=
EXTT8=
EXTT9=
PLAYORDER=
